<mxfile host="drawio-plugin" modified="2022-12-10T02:52:45.975Z" agent="5.0 (Windows NT 6.2; Win64; x64) AppleWebKit/537.36 (KHTML, like Gecko) Chrome/98.0.4758.102 Safari/537.36" etag="NmMsfVqE2OI_ReNsBr-e" version="15.5.4" type="embed"><diagram id="ssgXC5b14exSA3hp8Fk9" name="Page-1"><mxGraphModel dx="933" dy="554" grid="1" gridSize="10" guides="1" tooltips="1" connect="1" arrows="1" fold="1" page="1" pageScale="1" pageWidth="850" pageHeight="1100" math="0" shadow="0"><root><mxCell id="0"/><mxCell id="1" parent="0"/><mxCell id="12" value="BoardView" style="swimlane;fontStyle=1;align=center;verticalAlign=top;childLayout=stackLayout;horizontal=1;startSize=26;horizontalStack=0;resizeParent=1;resizeParentMax=0;resizeLast=0;collapsible=1;marginBottom=0;" parent="1" vertex="1"><mxGeometry x="220" y="90" width="340" height="112" as="geometry"/></mxCell><mxCell id="16" value="- boardTileViewGrid: Grid2DArray&lt;BoardTileView&gt; " style="text;strokeColor=none;fillColor=none;align=left;verticalAlign=top;spacingLeft=4;spacingRight=4;overflow=hidden;rotatable=0;points=[[0,0.5],[1,0.5]];portConstraint=eastwest;" parent="12" vertex="1"><mxGeometry y="26" width="340" height="26" as="geometry"/></mxCell><mxCell id="18" value="" style="line;strokeWidth=1;fillColor=none;align=left;verticalAlign=middle;spacingTop=-1;spacingLeft=3;spacingRight=3;rotatable=0;labelPosition=right;points=[];portConstraint=eastwest;" parent="12" vertex="1"><mxGeometry y="52" width="340" height="8" as="geometry"/></mxCell><mxCell id="19" value="+ BoardView(ScrabbleModel)" style="text;strokeColor=none;fillColor=none;align=left;verticalAlign=top;spacingLeft=4;spacingRight=4;overflow=hidden;rotatable=0;points=[[0,0.5],[1,0.5]];portConstraint=eastwest;" parent="12" vertex="1"><mxGeometry y="60" width="340" height="26" as="geometry"/></mxCell><mxCell id="52" value="+ getControllers(): List&lt;BoardTileController&gt;" style="text;strokeColor=none;fillColor=none;align=left;verticalAlign=top;spacingLeft=4;spacingRight=4;overflow=hidden;rotatable=0;points=[[0,0.5],[1,0.5]];portConstraint=eastwest;" vertex="1" parent="12"><mxGeometry y="86" width="340" height="26" as="geometry"/></mxCell><mxCell id="38" value="" style="endArrow=diamondThin;endFill=0;endSize=24;html=1;rounded=0;" parent="1" source="39" target="12" edge="1"><mxGeometry width="160" relative="1" as="geometry"><mxPoint x="630" y="352.7647058823529" as="sourcePoint"/><mxPoint x="560" y="408" as="targetPoint"/></mxGeometry></mxCell><mxCell id="39" value="Grid2DArray&lt;BoardTileView&gt;" style="swimlane;fontStyle=1;align=center;verticalAlign=top;childLayout=stackLayout;horizontal=1;startSize=26;horizontalStack=0;resizeParent=1;resizeParentMax=0;resizeLast=0;collapsible=1;marginBottom=0;" vertex="1" parent="1"><mxGeometry x="610" y="64" width="200" height="164" as="geometry"/></mxCell><mxCell id="40" value="" style="line;strokeWidth=1;fillColor=none;align=left;verticalAlign=middle;spacingTop=-1;spacingLeft=3;spacingRight=3;rotatable=0;labelPosition=right;points=[];portConstraint=eastwest;" vertex="1" parent="39"><mxGeometry y="26" width="200" height="8" as="geometry"/></mxCell><mxCell id="41" value="+ Gird2DArray(int)" style="text;strokeColor=none;fillColor=none;align=left;verticalAlign=top;spacingLeft=4;spacingRight=4;overflow=hidden;rotatable=0;points=[[0,0.5],[1,0.5]];portConstraint=eastwest;" vertex="1" parent="39"><mxGeometry y="34" width="200" height="26" as="geometry"/></mxCell><mxCell id="42" value="+ get(Point): BoardTileView" style="text;strokeColor=none;fillColor=none;align=left;verticalAlign=top;spacingLeft=4;spacingRight=4;overflow=hidden;rotatable=0;points=[[0,0.5],[1,0.5]];portConstraint=eastwest;" vertex="1" parent="39"><mxGeometry y="60" width="200" height="26" as="geometry"/></mxCell><mxCell id="43" value="+ set(Point, BoardTileView): void" style="text;strokeColor=none;fillColor=none;align=left;verticalAlign=top;spacingLeft=4;spacingRight=4;overflow=hidden;rotatable=0;points=[[0,0.5],[1,0.5]];portConstraint=eastwest;" vertex="1" parent="39"><mxGeometry y="86" width="200" height="26" as="geometry"/></mxCell><mxCell id="44" value="+ getSize(): int" style="text;strokeColor=none;fillColor=none;align=left;verticalAlign=top;spacingLeft=4;spacingRight=4;overflow=hidden;rotatable=0;points=[[0,0.5],[1,0.5]];portConstraint=eastwest;" vertex="1" parent="39"><mxGeometry y="112" width="200" height="26" as="geometry"/></mxCell><mxCell id="45" value="+ toString(): String" style="text;strokeColor=none;fillColor=none;align=left;verticalAlign=top;spacingLeft=4;spacingRight=4;overflow=hidden;rotatable=0;points=[[0,0.5],[1,0.5]];portConstraint=eastwest;" vertex="1" parent="39"><mxGeometry y="138" width="200" height="26" as="geometry"/></mxCell><mxCell id="47" value="&lt;&lt;Interface&gt;&gt;&#10;BoardChangeListener" style="swimlane;fontStyle=0;childLayout=stackLayout;horizontal=1;startSize=40;fillColor=none;horizontalStack=0;resizeParent=1;resizeParentMax=0;resizeLast=0;collapsible=1;marginBottom=0;" vertex="1" parent="1"><mxGeometry x="255" y="250" width="270" height="66" as="geometry"/></mxCell><mxCell id="48" value="+ handleBoardChangeEvent(BoardChangeEvent)" style="text;strokeColor=none;fillColor=none;align=left;verticalAlign=top;spacingLeft=4;spacingRight=4;overflow=hidden;rotatable=0;points=[[0,0.5],[1,0.5]];portConstraint=eastwest;" vertex="1" parent="47"><mxGeometry y="40" width="270" height="26" as="geometry"/></mxCell><mxCell id="49" value="JPanel" style="swimlane;fontStyle=1;align=center;verticalAlign=top;childLayout=stackLayout;horizontal=1;startSize=40;horizontalStack=0;resizeParent=1;resizeParentMax=0;resizeLast=0;collapsible=1;marginBottom=0;" vertex="1" parent="1"><mxGeometry x="280" y="10" width="220" height="30" as="geometry"/></mxCell><mxCell id="50" value="" style="endArrow=block;dashed=1;endFill=0;endSize=12;html=1;rounded=0;" edge="1" parent="1" source="12" target="47"><mxGeometry width="160" relative="1" as="geometry"><mxPoint x="300" y="207" as="sourcePoint"/><mxPoint x="240" y="207" as="targetPoint"/></mxGeometry></mxCell><mxCell id="51" value="" style="endArrow=block;endSize=16;endFill=0;html=1;rounded=0;" edge="1" parent="1" source="12" target="49"><mxGeometry width="160" relative="1" as="geometry"><mxPoint x="340" y="290" as="sourcePoint"/><mxPoint x="500" y="290" as="targetPoint"/></mxGeometry></mxCell></root></mxGraphModel></diagram></mxfile>